<?xml version="1.0" encoding="UTF-8"?>
<svg id="Layer_1" data-name="Layer 1" xmlns="http://www.w3.org/2000/svg" version="1.1" viewBox="0 0 90 40">
  <defs>
    <style>
      .cls-1 {
        fill: #fff;
        stroke-width: 0px;
      }
    </style>
  </defs>
  <path class="cls-1" d="M70,40c-10.9,0-18.9-9.5-26.5-18.7-7.4-8.9-14.4-17.3-23.5-17.3S4,11.2,4,20s7.2,16,16,16,13.3-5.6,18.2-11.2c.7-.8,2-.9,2.8-.1.8.7.9,2,0,2.8-5.5,6.2-12.4,12.5-21.2,12.5S0,31,0,20,9,0,20,0s18.9,9.5,26.5,18.7c7.4,8.9,14.4,17.3,23.5,17.3s16-7.2,16-16-7.2-16-16-16-13.3,5.6-18.2,11.2c-.7.8-2,.9-2.8.1-.8-.7-.9-2,0-2.8C54.3,6.3,61.2,0,70,0s20,9,20,20-9,20-20,20Z"/>
</svg>