<?xml version="1.0" encoding="UTF-8"?>
<svg id="Layer_1" data-name="Layer 1" xmlns="http://www.w3.org/2000/svg" version="1.1" viewBox="0 0 28 22">
  <defs>
    <style>
      .cls-1 {
        fill: #fff;
        stroke-width: 0px;
      }
    </style>
  </defs>
  <path class="cls-1" d="M27,0H1C.4,0,0,.5,0,1v20c0,.6.4,1,1,1h26c.6,0,1-.4,1-1V1c0-.6-.4-1-1-1ZM26,2v11l-4.2-5.6c-.2-.2-.5-.4-.8-.4s-.6,0-.8.3l-6.4,7.3-5.2-4.4c-.4-.3-.9-.3-1.3,0l-5.3,4.6V2h24ZM2,20v-2.5l6-5.1,5.4,4.5c.4.3,1,.3,1.4-.1l6.2-7.1,5.1,6.7v3.7H2ZM13,10c1.7,0,3-1.3,3-3s-1.3-3-3-3-3,1.3-3,3,1.3,3,3,3ZM13,6c.6,0,1,.4,1,1s-.4,1-1,1-1-.4-1-1,.4-1,1-1Z"/>
</svg>