<?xml version="1.0" encoding="UTF-8"?>
<svg id="Layer_1" data-name="Layer 1" xmlns="http://www.w3.org/2000/svg" version="1.1" viewBox="0 0 74 52">
  <defs>
    <style>
      .cls-1 {
        fill: #fff;
        stroke-width: 0px;
      }
    </style>
  </defs>
  <path class="cls-1" d="M64,0H10C4.5,0,0,4.5,0,10v36c0,3.3,2.7,6,6,6h62c3.3,0,6-2.7,6-6V10c0-5.5-4.5-10-10-10ZM4,10c0-3.3,2.7-6,6-6h54c3.3,0,6,2.7,6,6v5h-27.1c0-.3-.3-.6-.5-.9l-1.4-1.9c-.9-1.3-2.5-2.1-4.1-2.1s-3.1.8-4.1,2.1l-1.4,1.9c-.2.3-.4.6-.5.9H4v-5ZM34.6,17c0-.2,0-.4.2-.6l1.4-1.9c.3-.4.6-.4.8-.4s.6,0,.8.4l1.4,1.9c0,.2.2.4.2.6h0c0,.2,0,.4-.2.6l-1.4,1.9c-.3.4-.6.4-.8.4s-.6,0-.8-.4l-1.4-1.9c0-.2-.2-.4-.2-.6h0ZM70,46c0,1.1-.9,2-2,2H6c-1.1,0-2-.9-2-2v-27h27.1c.1.3.3.6.5.9l1.4,1.9c.9,1.3,2.5,2.1,4.1,2.1s3.1-.8,4.1-2.1l1.4-1.9c.2-.3.4-.6.5-.9h27.1v27h-.2Z"/>
</svg>