<?xml version="1.0" encoding="UTF-8"?>
<svg id="Layer_1" data-name="Layer 1" xmlns="http://www.w3.org/2000/svg" version="1.1" viewBox="0 0 100 100">
  <defs>
    <style>
      .cls-1 {
        fill: #fff;
        stroke-width: 0px;
      }
    </style>
  </defs>
  <path class="cls-1" d="M98.4,48.2l-12.3-12.2c5.8-2.9,9.4-9,9-15.5-.4-9-8-16-17-15.7-6,.2-11.4,3.8-14,9.2L52,1.6c-2.2-2.2-5.8-2.2-8,0l-12.4,12.4c-.8.8-.8,2,0,2.8.2.3.6.4.9.5,2.8.7,5.3,2.4,6.9,4.8,3.1,4.5,2.9,10.5-.4,14.8-4.2,5.3-12,6.3-17.3,2.1-2.1-1.7-3.6-4-4.3-6.6-.3-1.1-1.4-1.7-2.5-1.4-.3,0-.7.3-.9.5L1.6,44c-2.2,2.2-2.2,5.7,0,7.9h0l12.3,12c-8,4.1-11.2,14-7,22,4.1,8,14,11.2,22,7,3-1.6,5.5-4,7-7l12,12.3c2.2,2.2,5.7,2.2,7.9,0h0l12.4-12.4c.8-.8.8-2,0-2.8-.2-.3-.6-.4-.9-.5-2.8-.7-5.3-2.4-6.9-4.8-3.1-4.5-2.9-10.5.4-14.8,4.2-5.3,12-6.3,17.3-2.1,2.1,1.7,3.6,4,4.3,6.6.2.7.7,1.2,1.4,1.4.7.2,1.4,0,1.9-.5l12.4-12.4c2.2-2.2,2.2-5.7,0-7.9h0v.2h.3Z"/>
</svg>